<svg viewBox="0 0 400 400" xmlns="http://www.w3.org/2000/svg"><g id="Layer_2" ><g fill="white" id="Layer_1-2"><path id="k" d="m200 0c-110.46 0-200 89.54-200 200 0 110.46 89.54 200 200 200 110.46 0 200-89.54 200-200 0-110.46-89.54-200-200-200zm61.91 297.88h-38.25c-2.75 0-4.5-1-5.5-2.76l-42-73.24v72c0 2.74-1.25 4-3.75 4h-36c-2.5 0-3.75-1.26-3.75-4v-187.76c0-2.74 1.25-4 3.75-4h36c2.5 0 3.75 1.26 3.75 4v98l33.25-45.5a6 6 0 0 1 5.25-2.5h40c4.25 0 5 1.5 2.25 4.76l-38 51.24 47.25 79c2.5 4.5 1 6.76-4.25 6.76z"/></g></g></svg>